<mxfile host="app.diagrams.net" modified="2021-03-30T03:51:44.218Z" agent="5.0 (Macintosh; Intel Mac OS X 10_14_3) AppleWebKit/537.36 (KHTML, like Gecko) Chrome/89.0.4389.90 Safari/537.36" etag="7zTnRGFwarF5EWqMtBYu" version="14.5.1" type="github">
  <diagram id="3228e29e-7158-1315-38df-8450db1d8a1d" name="Page-1">
    <mxGraphModel dx="749" dy="650" grid="1" gridSize="10" guides="1" tooltips="1" connect="1" arrows="1" fold="1" page="1" pageScale="1" pageWidth="1210" pageHeight="160" background="#ffffff" math="0" shadow="1">
      <root>
        <mxCell id="0" />
        <mxCell id="1" parent="0" />
        <mxCell id="hxIQwMxnJQ58AHrIh3xL-3" style="edgeStyle=orthogonalEdgeStyle;rounded=0;orthogonalLoop=1;jettySize=auto;html=1;exitX=1;exitY=0.5;exitDx=0;exitDy=0;exitPerimeter=0;entryX=0;entryY=0.5;entryDx=0;entryDy=0;entryPerimeter=0;strokeWidth=10;endArrow=none;endFill=0;" parent="1" source="WelgVeyDKxLRvEI-DW8B-16" target="WelgVeyDKxLRvEI-DW8B-18" edge="1">
          <mxGeometry relative="1" as="geometry" />
        </mxCell>
        <mxCell id="WelgVeyDKxLRvEI-DW8B-16" value="" style="fontColor=#0066CC;verticalAlign=top;verticalLabelPosition=bottom;labelPosition=center;align=center;html=1;outlineConnect=0;gradientColor=none;gradientDirection=north;strokeWidth=2;shape=mxgraph.networks.pc;fillColor=#4A919B;" parent="1" vertex="1">
          <mxGeometry x="77.00000000000003" y="19" width="147.15" height="103" as="geometry" />
        </mxCell>
        <mxCell id="WelgVeyDKxLRvEI-DW8B-18" value="" style="fontColor=#0066CC;verticalAlign=top;verticalLabelPosition=bottom;labelPosition=center;align=center;html=1;outlineConnect=0;gradientColor=none;gradientDirection=north;strokeWidth=2;shape=mxgraph.networks.pc;fillColor=#4A919B;" parent="1" vertex="1">
          <mxGeometry x="891" y="19" width="147.15" height="103" as="geometry" />
        </mxCell>
        <mxCell id="hxIQwMxnJQ58AHrIh3xL-1" value="&lt;font style=&quot;font-size: 50px&quot;&gt;A&lt;/font&gt;" style="text;html=1;strokeColor=none;fillColor=none;align=center;verticalAlign=middle;whiteSpace=wrap;rounded=0;" parent="1" vertex="1">
          <mxGeometry x="142" y="49" width="40" height="20" as="geometry" />
        </mxCell>
        <mxCell id="hxIQwMxnJQ58AHrIh3xL-2" value="&lt;font style=&quot;font-size: 50px&quot;&gt;B&lt;/font&gt;" style="text;html=1;strokeColor=none;fillColor=none;align=center;verticalAlign=middle;whiteSpace=wrap;rounded=0;" parent="1" vertex="1">
          <mxGeometry x="961" y="49" width="40" height="20" as="geometry" />
        </mxCell>
        <mxCell id="BuwI_Xl8O7fkygsIPCAy-1" value="&lt;span style=&quot;font-size: 15px&quot;&gt;我是A,IP地址是192.168.0.105；MAC地址是&lt;/span&gt;&lt;span style=&quot;font-size: 15px ; color: rgb(51 , 51 , 51) ; font-family: &amp;#34;open sans&amp;#34; , &amp;#34;clear sans&amp;#34; , &amp;#34;helvetica neue&amp;#34; , &amp;#34;helvetica&amp;#34; , &amp;#34;arial&amp;#34; , sans-serif&quot;&gt;AA:AA:AA:AA:AA:AA；&lt;br&gt;谁是&lt;/span&gt;&lt;span style=&quot;font-size: 15px&quot;&gt;192.168.0.106？&lt;/span&gt;&lt;br style=&quot;font-size: 15px&quot;&gt;&lt;span style=&quot;font-size: 15px&quot;&gt;你MAC地址是多少？收到请回复&lt;/span&gt;" style="shape=callout;whiteSpace=wrap;html=1;perimeter=calloutPerimeter;rounded=1;position2=0.5;" parent="1" vertex="1">
          <mxGeometry x="166" y="-100" width="240" height="140" as="geometry" />
        </mxCell>
        <mxCell id="BuwI_Xl8O7fkygsIPCAy-8" value="IP地址：192.168.0.105" style="text;html=1;strokeColor=none;fillColor=none;align=center;verticalAlign=middle;whiteSpace=wrap;rounded=0;fontSize=20;" parent="1" vertex="1">
          <mxGeometry x="77.5" y="140" width="253.5" height="20" as="geometry" />
        </mxCell>
        <mxCell id="BuwI_Xl8O7fkygsIPCAy-9" value="MAC地址：&lt;span style=&quot;color: rgb(51, 51, 51); font-family: &amp;quot;open sans&amp;quot;, &amp;quot;clear sans&amp;quot;, &amp;quot;helvetica neue&amp;quot;, helvetica, arial, sans-serif; font-size: 20px;&quot;&gt;AA:AA:AA:AA:AA:AA&lt;/span&gt;" style="text;html=1;strokeColor=none;fillColor=none;align=center;verticalAlign=middle;whiteSpace=wrap;rounded=0;fontSize=20;" parent="1" vertex="1">
          <mxGeometry x="86" y="160" width="320" height="30" as="geometry" />
        </mxCell>
        <mxCell id="BuwI_Xl8O7fkygsIPCAy-10" value="IP地址：192.168.0.106" style="text;html=1;strokeColor=none;fillColor=none;align=center;verticalAlign=middle;whiteSpace=wrap;rounded=0;fontSize=20;" parent="1" vertex="1">
          <mxGeometry x="871" y="140" width="253.5" height="20" as="geometry" />
        </mxCell>
        <mxCell id="BuwI_Xl8O7fkygsIPCAy-11" value="MAC地址：BB&lt;span style=&quot;color: rgb(51 , 51 , 51) ; font-family: &amp;#34;open sans&amp;#34; , &amp;#34;clear sans&amp;#34; , &amp;#34;helvetica neue&amp;#34; , &amp;#34;helvetica&amp;#34; , &amp;#34;arial&amp;#34; , sans-serif ; font-size: 20px&quot;&gt;:BB:BB:BB:BB:BB&lt;/span&gt;" style="text;html=1;strokeColor=none;fillColor=none;align=center;verticalAlign=middle;whiteSpace=wrap;rounded=0;fontSize=20;" parent="1" vertex="1">
          <mxGeometry x="879.5" y="160" width="320" height="30" as="geometry" />
        </mxCell>
        <mxCell id="BuwI_Xl8O7fkygsIPCAy-16" value="" style="shape=flexArrow;endArrow=classic;html=1;fontSize=20;fillColor=#6DB5A8;strokeColor=#6DB5A8;" parent="1" edge="1">
          <mxGeometry width="50" height="50" relative="1" as="geometry">
            <mxPoint x="261" y="-120" as="sourcePoint" />
            <mxPoint x="311" y="-120" as="targetPoint" />
          </mxGeometry>
        </mxCell>
        <mxCell id="BuwI_Xl8O7fkygsIPCAy-18" value="" style="shape=flexArrow;endArrow=classic;html=1;fontSize=20;fillColor=#6DB5A8;strokeColor=#6DB5A8;" parent="1" edge="1">
          <mxGeometry width="50" height="50" relative="1" as="geometry">
            <mxPoint x="779.5" y="260" as="sourcePoint" />
            <mxPoint x="729.5" y="260" as="targetPoint" />
          </mxGeometry>
        </mxCell>
        <mxCell id="BuwI_Xl8O7fkygsIPCAy-19" value="&lt;span style=&quot;font-size: 15px&quot;&gt;收到！我就是B,&lt;br&gt;IP地址是192.168.0.106；&lt;br&gt;MAC地址是&lt;/span&gt;&lt;span style=&quot;font-size: 15px&quot;&gt;BB&lt;/span&gt;&lt;span style=&quot;font-size: 15px ; color: rgb(51 , 51 , 51) ; font-family: &amp;#34;open sans&amp;#34; , &amp;#34;clear sans&amp;#34; , &amp;#34;helvetica neue&amp;#34; , &amp;#34;helvetica&amp;#34; , &amp;#34;arial&amp;#34; , sans-serif&quot;&gt;:BB:BB:BB:BB:BB&lt;/span&gt;&lt;span style=&quot;font-size: 15px ; color: rgb(51 , 51 , 51) ; font-family: &amp;#34;open sans&amp;#34; , &amp;#34;clear sans&amp;#34; , &amp;#34;helvetica neue&amp;#34; , &amp;#34;helvetica&amp;#34; , &amp;#34;arial&amp;#34; , sans-serif&quot;&gt;；&lt;br&gt;你的IP是&lt;/span&gt;&lt;span style=&quot;font-size: 15px&quot;&gt;192.168.0.105；&lt;/span&gt;&lt;br style=&quot;font-size: 15px&quot;&gt;&lt;span style=&quot;font-size: 15px&quot;&gt;你的MAC地址是&lt;/span&gt;&lt;span style=&quot;font-size: 15px ; color: rgb(51 , 51 , 51) ; font-family: &amp;#34;open sans&amp;#34; , &amp;#34;clear sans&amp;#34; , &amp;#34;helvetica neue&amp;#34; , &amp;#34;helvetica&amp;#34; , &amp;#34;arial&amp;#34; , sans-serif&quot;&gt;AA:AA:AA:AA:AA:AA；&lt;/span&gt;" style="shape=callout;whiteSpace=wrap;html=1;perimeter=calloutPerimeter;position2=0.48;direction=west;rounded=1;" parent="1" vertex="1">
          <mxGeometry x="609.5" y="80" width="270" height="150" as="geometry" />
        </mxCell>
        <mxCell id="BuwI_Xl8O7fkygsIPCAy-22" value="&lt;span&gt;2.ARP广播&lt;/span&gt;" style="rounded=1;whiteSpace=wrap;html=1;fontSize=20;fillColor=#FDD276;" parent="1" vertex="1">
          <mxGeometry x="406" y="90" width="120" height="60" as="geometry" />
        </mxCell>
        <mxCell id="BuwI_Xl8O7fkygsIPCAy-23" value="&lt;span&gt;1.查本地ARP表&lt;/span&gt;" style="rounded=1;whiteSpace=wrap;html=1;fontSize=20;fillColor=#FDD276;" parent="1" vertex="1">
          <mxGeometry x="11" y="-60" width="120" height="60" as="geometry" />
        </mxCell>
        <mxCell id="BuwI_Xl8O7fkygsIPCAy-24" value="&lt;span&gt;3.ARP应答&lt;/span&gt;" style="rounded=1;whiteSpace=wrap;html=1;fontSize=20;fillColor=#FDD276;" parent="1" vertex="1">
          <mxGeometry x="931" y="-70" width="120" height="60" as="geometry" />
        </mxCell>
        <mxCell id="BuwI_Xl8O7fkygsIPCAy-25" value="&lt;span&gt;4.缓存B的IP和MAC关系到本地表&lt;/span&gt;" style="rounded=1;whiteSpace=wrap;html=1;fontSize=20;fillColor=#FDD276;" parent="1" vertex="1">
          <mxGeometry x="131" y="200" width="170" height="80" as="geometry" />
        </mxCell>
      </root>
    </mxGraphModel>
  </diagram>
</mxfile>
